<svg id="Capa_1" data-name="Capa 1" xmlns="http://www.w3.org/2000/svg" viewBox="0 0 200 200"><defs><style>.cls-1{fill:#fff;}</style></defs><path class="cls-1" d="M99.51,200H8.27c-7.13,0-8.54-1.49-8.11-8.5,3.05-50.13,40.68-86.11,90.94-86.71,14.81-.18,29.64-.76,44.18,3.55a90.38,90.38,0,0,1,64.62,84.37c.13,5.46-1.79,7.28-7.87,7.28Q145.77,200,99.51,200Z"/><path class="cls-1" d="M99.93,95.21c-27-.29-47.75-21.61-47.49-48.82C52.68,21.06,74.68-.26,100.31,0,127,.27,147.83,21.9,147.6,49.11,147.39,74.2,125.38,95.48,99.93,95.21Z"/></svg>