<svg id="Capa_1" data-name="Capa 1" xmlns="http://www.w3.org/2000/svg" viewBox="0 0 200 200"><defs><style>.cls-1{fill:#fff;}</style></defs><circle class="cls-1" cx="80.22" cy="176.36" r="23.64"/><path class="cls-1" d="M149.22,152.71h0a23.65,23.65,0,1,0,23.64,23.65A23.65,23.65,0,0,0,149.22,152.71Z"/><path class="cls-1" d="M189.5,128.59H66.22l-2.41-14H165.14a7.24,7.24,0,0,0,6.75-4.59L196,49.22a7.25,7.25,0,0,0-6.76-9.9h-138L45.48,6a7.24,7.24,0,0,0-7.24-6H10.5a7.24,7.24,0,0,0,0,14.48H32.21L53,137a7.23,7.23,0,0,0,7.23,6H189.5a7.24,7.24,0,1,0,0-14.47Z"/></svg>