<svg id="Capa_1" data-name="Capa 1" xmlns="http://www.w3.org/2000/svg" viewBox="0 0 200 200"><defs><style>.cls-1{fill:#fb990d;}</style></defs><path class="cls-1" d="M100.11,189.81a19.37,19.37,0,0,1-12.61-5.08l-4-3.4c-11.72-10.07-23.83-20.49-35.69-30.81-11-9.61-22.54-20.23-31.89-32.8C7.59,106.47,2.68,95.55,1,84.32c-3.2-20.93,1.59-39,14.24-53.86C28.38,15,46.26,8.27,66.9,10.91,79.22,12.49,90.34,18.49,100,28.76c16.43-17.17,36.74-22.58,58.76-15.63,20.15,6.36,33.32,20.86,39.15,43.09a70.86,70.86,0,0,1,1.52,8.19c.16,1.09.32,2.19.5,3.28l.1.58V78l-.17.76-.15.61c-1,11.42-5,22.25-12,33.09a137.25,137.25,0,0,1-23.83,27.36c-14.77,13.18-30,26.35-44.66,39.09L112,185.07A18.1,18.1,0,0,1,100.11,189.81Zm-42-165.52c-12.94,0-23.55,5-32.28,15.23-10,11.75-13.65,25.72-11,42.69,1.38,9,5.32,17.68,12.39,27.18C35.24,120.26,44.94,129.49,57,140c11.82,10.29,23.92,20.69,35.62,30.75l4,3.4c3.13,2.69,4.71,1.77,6.31.38l7.12-6.18c14.66-12.7,29.81-25.83,44.51-38.95A121.69,121.69,0,0,0,176,104.85c5.84-9,9.06-17.82,9.85-27a9.57,9.57,0,0,1,.25-1.49V69.43c-.17-1-.31-2-.46-3a62.21,62.21,0,0,0-1.2-6.64c-4.6-17.53-14.37-28.43-29.86-33.32C137.39,21,122.8,25,109.92,38.55c-.74.78-1.49,1.67-2.18,2.51-.48.57-.93,1.16-1.4,1.79l-6.06,7.81-5.56-6.58c-.56-.65-1.1-1.31-1.63-1.95-1-1.27-2-2.47-3-3.55-7.52-8.12-15.67-12.64-24.92-13.83A57.33,57.33,0,0,0,58.09,24.29Z"/></svg>